<svg xmlns="http://www.w3.org/2000/svg" height="137pt" viewBox="-22 0 137 137.823" width="137pt"><path d="M24.422 137.488c.312.219.683.336 1.066.336a1.869 1.869 0 0 0 1.66-2.68C15.7 96.919 32.7 78.497 39.968 72.649c-.613 24.676 12.669 43.184 13.313 43.997a1.88 1.88 0 0 0 2.043.683c3.844-1.16 9.742-4.984 13.375-7.473-1.015 9.895-5.176 25.38-5.222 25.551a1.873 1.873 0 0 0 1.32 2.293 1.878 1.878 0 0 0 1.613-.32c.813-.629 19.914-15.602 26.067-40.777 6.222-25.375-11.204-50.157-11.887-51.188a1.874 1.874 0 0 0-2.602-.453 1.883 1.883 0 0 0-.785 1.7 65.674 65.674 0 0 1-8.465 36.03c1.137-6.66 1.719-16.464.598-30.754C66.473 15.941 33.777.325 33.446.176a1.862 1.862 0 0 0-2.481.906 1.88 1.88 0 0 0-.16 1.023c1.894 14.786-1.555 21.317-10.778 38.77-3.734 7.04-8.351 15.805-13.89 27.512-19.75 41.781 17.898 68.84 18.285 69.101zM9.484 69.984c5.504-11.64 10.121-20.363 13.817-27.382 8.625-16.329 12.594-23.832 11.55-37.41 7.868 4.687 28.54 19.538 30.676 47.015 1.918 24.598-1.242 35.137-3.28 39.23a7.871 7.871 0 0 1-1.138 1.793 1.869 1.869 0 0 0 .032 2.641 1.863 1.863 0 0 0 2.558.047 67.514 67.514 0 0 0 17.239-42.574c4.664 8.586 11.968 25.62 7.867 42.453-4.047 16.562-14.29 28.707-20.239 34.637 1.657-6.86 4.059-17.891 4.059-24.258a1.87 1.87 0 0 0-1.863-1.871c-.403 0-.79.125-1.11.363-.101.078-8.718 6.445-14.168 8.637-2.972-4.567-13.402-22.489-11.586-44.235a1.862 1.862 0 0 0-1.699-2.015 1.818 1.818 0 0 0-1.086.238c-.277.172-30.144 17.8-18.945 63.473-9.023-8.336-27.195-30.043-12.656-60.782zm0 0"/></svg>