<svg xmlns="http://www.w3.org/2000/svg" viewBox="0 0 509.498 509.498"><path d="M509.185 134.412c-1.384-9.878-7.178-18.323-15.898-23.167l-54.759-30.421c-8.816-4.898-13.781-14.896-12.355-24.88l1.411-9.879c1.04-7.283-1.445-14.737-6.647-19.939-9.161-9.162-24.069-9.162-33.23 0l-130.11 130.108L6.883 406.947C2.445 411.385 0 417.287 0 423.564s2.445 12.179 6.883 16.617l.106.104 49.806 47.865c.046.044.095.081.142.124.118.108.237.215.363.316.083.067.169.128.255.19.107.079.213.158.325.231.12.079.244.15.367.221.084.048.166.099.252.144.165.087.334.164.504.238.046.02.088.044.134.063l.03.01c.176.072.354.132.534.19.055.018.11.04.165.056.149.044.3.077.451.112.089.021.177.046.267.063.075.014.151.021.227.033.394.063.788.102 1.18.102.025 0 .05-.005.075-.006a7.731 7.731 0 0 0 1.153-.105c.309-.051.615-.115.917-.205l.019-.005c.316-.095.625-.217.929-.354.062-.028.123-.058.185-.088a7.65 7.65 0 0 0 .759-.423c.04-.026.082-.048.122-.074.264-.176.518-.372.763-.586.073-.063.141-.132.211-.198.093-.087.189-.169.279-.262.08-.083.149-.173.225-.259.064-.073.129-.144.191-.219.207-.255.396-.519.565-.793.026-.043.049-.089.075-.132.163-.277.306-.562.43-.854.012-.029.03-.054.042-.083l9.446-22.939 16.067 2.515a7.497 7.497 0 0 0 8.487-5.811l3.297-15.111 14.92 2.339a7.496 7.496 0 0 0 8.489-5.811l3.298-15.111 14.916 2.34a7.495 7.495 0 0 0 8.49-5.812l3.294-15.104 14.904 2.344a7.496 7.496 0 0 0 8.493-5.811l3.293-15.104 14.903 2.344a7.5 7.5 0 0 0 8.494-5.818l3.274-15.079 14.9 2.342a7.5 7.5 0 0 0 8.493-5.814l3.284-15.089 14.88 2.35a7.503 7.503 0 0 0 8.5-5.821l3.262-15.061 14.875 2.348a7.495 7.495 0 0 0 8.498-5.813l3.284-15.091 14.89 2.347a7.5 7.5 0 0 0 8.498-5.823l3.255-15.048 14.842 2.358a7.5 7.5 0 0 0 8.505-5.814l3.28-15.086 14.892 2.346a7.503 7.503 0 0 0 8.496-5.816l3.278-15.086 14.906 2.341a7.5 7.5 0 0 0 8.493-5.817l3.277-15.082 14.859 2.342.007.001.021.003c.354.056.704.077 1.052.083.038.001.077.009.115.009.054 0 .107-.007.16-.008a8.057 8.057 0 0 0 .714-.049 7.302 7.302 0 0 0 1.412-.305 7.171 7.171 0 0 0 .688-.259 8.172 8.172 0 0 0 .66-.324 7.253 7.253 0 0 0 .622-.386c.12-.083.236-.17.351-.259.077-.06.153-.119.227-.182.118-.1.232-.204.344-.312.041-.039.084-.073.124-.112l79.325-79.325c7.052-7.055 10.303-16.766 8.92-26.644zM368.242 242.78a7.498 7.498 0 0 0-8.493 5.817l-3.277 15.083-14.891-2.345a7.5 7.5 0 0 0-8.496 5.815l-3.278 15.077-14.85-2.359a7.5 7.5 0 0 0-8.507 5.822l-3.257 15.056-14.881-2.345a7.5 7.5 0 0 0-8.496 5.814l-3.284 15.089-14.882-2.349a7.5 7.5 0 0 0-8.5 5.821l-3.262 15.061-14.873-2.349a7.5 7.5 0 0 0-8.499 5.813l-3.285 15.094-14.903-2.343a7.499 7.499 0 0 0-8.494 5.818l-3.274 15.079-14.897-2.343a7.5 7.5 0 0 0-8.493 5.811l-3.292 15.104-14.904-2.344a7.497 7.497 0 0 0-8.493 5.811l-3.294 15.107-14.914-2.341a7.5 7.5 0 0 0-8.49 5.81l-3.298 15.113-14.92-2.339a7.496 7.496 0 0 0-8.489 5.811l-3.297 15.113-14.929-2.336a7.505 7.505 0 0 0-8.095 4.554l-7.505 18.226-41.805-40.176A8.443 8.443 0 0 1 15 423.565a8.44 8.44 0 0 1 2.49-6.01l245.41-245.41 17.955 17.955a71.879 71.879 0 0 0 27.948 17.273l76.973 25.657-2.627 12.092-14.907-2.342zm121.415-92.332l-76.048 76.047-100.063-33.355a56.788 56.788 0 0 1-22.084-13.649l-17.955-17.955L398.313 36.731c1.605-1.605 3.739-2.489 6.009-2.489s4.404.884 6.008 2.489a8.538 8.538 0 0 1 2.404 7.212l-1.411 9.879c-2.298 16.096 5.707 32.217 19.921 40.113l54.758 30.421c4.568 2.538 7.603 6.96 8.328 12.135s-.978 10.262-4.673 13.957z"/><path d="M440.822 146.195l-76.014-37.123a15.504 15.504 0 0 0-17.762 2.968l-38.537 38.537a7.499 7.499 0 0 0-.001 10.605l.631.632a71.865 71.865 0 0 0 27.947 17.272l70.521 23.507a7.5 7.5 0 0 0 7.675-1.812l29.699-29.698a15.53 15.53 0 0 0 4.328-13.514 15.536 15.536 0 0 0-8.487-11.374zm-6.448 14.282l-26.421 26.421-66.123-22.042a56.81 56.81 0 0 1-17.134-9.253l32.957-32.957a.501.501 0 0 1 .573-.096l76.014 37.123c.075.037.232.113.274.367a.456.456 0 0 1-.14.437zm27.656-35.49l-76.014-37.123a7.501 7.501 0 0 0-6.582 13.479l76.014 37.123a7.502 7.502 0 0 0 6.582-13.479zm-210.09 70.845l-5.657 5.657a7.5 7.5 0 0 0 10.606 10.607l5.657-5.657a7.5 7.5 0 0 0-10.606-10.607zm-22.627 22.627l-73.539 73.539a7.5 7.5 0 0 0 0 10.606c1.464 1.465 3.384 2.197 5.303 2.197s3.839-.732 5.303-2.197l73.539-73.539a7.5 7.5 0 0 0 0-10.606 7.5 7.5 0 0 0-10.606 0z"/></svg>