<svg xmlns="http://www.w3.org/2000/svg" viewBox="0 0 395 395"><path d="M229.412 130.862A12.814 12.814 0 0 0 219 125.516h-1.266a12.81 12.81 0 0 0-12.161 8.782l-27.534 83.09-27.662-83.107a12.813 12.813 0 0 0-12.156-8.765h-.822l-.153.003c-.053 0-.105-.003-.155-.003h-.998a12.813 12.813 0 0 0-12.163 8.782l-27.533 83.09-27.661-83.107a12.813 12.813 0 0 0-12.156-8.765h-1.268c-4.13 0-8.007 1.991-10.414 5.346a12.815 12.815 0 0 0-1.72 11.579l40.125 118.344a12.81 12.81 0 0 0 12.135 8.698h.53c.153 0 .303-.008.455-.014.151.006.302.014.454.014h.354c5.5 0 10.386-3.511 12.142-8.721l27.845-82.675 27.718 82.657a12.813 12.813 0 0 0 12.148 8.739h.527c.153 0 .303-.008.456-.014.15.006.302.014.454.014h.355c5.491 0 10.37-3.497 12.134-8.698l40.125-118.344a12.822 12.822 0 0 0-1.723-11.579zM347.88 232.295a12.813 12.813 0 0 0-17.01-.378c-8.521 7.234-19.511 11.218-30.943 11.218-26.069 0-47.277-20.51-47.277-45.721 0-25.116 21.208-45.548 47.277-45.548 11.542 0 22.522 3.916 30.921 11.027a12.812 12.812 0 0 0 17.339-.719l.427-.427a12.807 12.807 0 0 0-.84-18.886c-13.371-11.184-30.366-17.344-47.848-17.344-40.598 0-73.628 32.253-73.628 71.898 0 39.739 33.03 72.07 73.628 72.07 17.454 0 34.493-6.207 47.979-17.48a12.804 12.804 0 0 0 4.589-9.494 12.809 12.809 0 0 0-4.087-9.723l-.527-.493z"/><path d="M313.001 0H81.999C36.785 0 0 36.784 0 81.998v230.993C0 358.211 36.785 395 81.999 395h231.002C358.216 395 395 358.211 395 312.991V81.998C395 36.784 358.216 0 313.001 0zM380 312.991C380 349.94 349.945 380 313.001 380H81.999C45.056 380 15 349.94 15 312.991V81.998C15 45.055 45.056 15 81.999 15h231.002C349.945 15 380 45.055 380 81.998v230.993z"/></svg>